<?xml version="1.0" encoding="UTF-8" standalone="no"?>
<!-- Created with Inkscape (http://www.inkscape.org/) -->

<svg
   xmlns:dc="http://purl.org/dc/elements/1.1/"
   xmlns:cc="http://creativecommons.org/ns#"
   xmlns:rdf="http://www.w3.org/1999/02/22-rdf-syntax-ns#"
   xmlns:svg="http://www.w3.org/2000/svg"
   xmlns="http://www.w3.org/2000/svg"
   xmlns:sodipodi="http://sodipodi.sourceforge.net/DTD/sodipodi-0.dtd"
   xmlns:inkscape="http://www.inkscape.org/namespaces/inkscape"
   width="237.12277mm"
   height="66.997299mm"
   viewBox="0 0 237.12277 66.997299"
   version="1.1"
   id="svg5052"
   inkscape:version="0.92.4 5da689c313, 2019-01-14"
   sodipodi:docname="204_geops.svg">
  <defs
     id="defs5046" />
  <sodipodi:namedview
     id="base"
     pagecolor="#ffffff"
     bordercolor="#666666"
     borderopacity="1.0"
     inkscape:pageopacity="0.0"
     inkscape:pageshadow="2"
     inkscape:zoom="0.49497475"
     inkscape:cx="386.11479"
     inkscape:cy="160.33495"
     inkscape:document-units="mm"
     inkscape:current-layer="layer1"
     showgrid="false"
     inkscape:window-width="1366"
     inkscape:window-height="708"
     inkscape:window-x="0"
     inkscape:window-y="31"
     inkscape:window-maximized="1"
     fit-margin-top="0"
     fit-margin-left="0"
     fit-margin-right="0"
     fit-margin-bottom="0" />
  <metadata
     id="metadata5049">
    <rdf:RDF>
      <cc:Work
         rdf:about="">
        <dc:format>image/svg+xml</dc:format>
        <dc:type
           rdf:resource="http://purl.org/dc/dcmitype/StillImage" />
        <dc:title></dc:title>
      </cc:Work>
    </rdf:RDF>
  </metadata>
  <g
     inkscape:label="Ebene 1"
     inkscape:groupmode="layer"
     id="layer1"
     style="display:inline"
     transform="translate(-29.938616,-158.50135)">
    <g
       id="g5079"
       transform="translate(0.3333335,14.440698)">
      <rect
         inkscape:export-ydpi="61"
         inkscape:export-xdpi="61"
         inkscape:export-filename="/tmp/head_geops.png"
         y="144.06065"
         x="118.621"
         height="59.701466"
         width="59.701466"
         id="rect3044"
         style="color:#000000;display:inline;overflow:visible;visibility:visible;fill:#ffffff;fill-opacity:1;stroke:none;stroke-width:1.66013074;stroke-linecap:butt;stroke-linejoin:miter;stroke-miterlimit:8;stroke-dasharray:none;stroke-dashoffset:0;stroke-opacity:1;marker:none;enable-background:accumulate" />
      <path
         inkscape:connector-curvature="0"
         inkscape:export-ydpi="61.790001"
         inkscape:export-xdpi="61.790001"
         inkscape:export-filename="/tmp/head_geops.png"
         d="m 142.30273,177.59019 c 2.00409,0 3.63569,1.629 3.63569,3.63361 0,2.00409 -1.6316,3.63362 -3.63569,3.63362 -2.00253,0 -3.63361,-1.62953 -3.63361,-3.63362 0,-2.00461 1.63108,-3.63361 3.63361,-3.63361"
         style="display:inline;fill:#61849c;fill-opacity:1;fill-rule:nonzero;stroke:none;stroke-width:0.41503268"
         id="path37" />
      <path
         inkscape:connector-curvature="0"
         inkscape:export-ydpi="61.790001"
         inkscape:export-xdpi="61.790001"
         inkscape:export-filename="/tmp/head_geops.png"
         d="m 147.81904,198.03989 c -13.74018,0.0586 -25.38236,-13.54926 -23.28074,-27.13951 1.40021,-13.18247 15.0994,-23.3819 28.17657,-20.71895 12.81154,2.11563 22.36663,15.76243 19.3898,28.58227 -2.15609,11.09071 -12.89298,19.84945 -24.28563,19.27619 z m 0.68065,-6.06363 c 11.36463,0.34655 20.68886,-11.78226 17.41218,-22.6805 -2.54986,-9.88556 -14.24496,-16.2532 -23.91315,-12.19158 -9.63031,3.51377 -14.65999,16.02752 -9.54886,25.0799 2.98875,5.88517 9.41294,9.87934 16.04983,9.79218 z"
         style="display:inline;fill:#6ec72d;fill-opacity:1;fill-rule:nonzero;stroke:none;stroke-width:0.41503268"
         id="path39" />
      <path
         inkscape:connector-curvature="0"
         inkscape:export-ydpi="53.011284"
         inkscape:export-xdpi="53.011284"
         inkscape:export-filename="c:\temp\geops_logo_large.png"
         d="M 68.080883,190.22327 H 42.919532 c -4.48236,0 -8.128419,-2.74596 -8.128419,-6.12173 V 170.2519 c 0,-3.37629 3.646059,-6.12225 8.128419,-6.12225 h 17.032941 c 4.48287,0 8.12841,2.74596 8.12841,6.12225 z m -8.12841,-31.27946 H 42.919532 c -7.33986,0 -13.314249,5.07274 -13.314249,11.30809 v 13.84964 c 0,6.23535 5.974389,11.30756 13.314249,11.30756 h 25.161351 v 4.34125 c 0,3.37577 -3.64554,6.12173 -8.12841,6.12173 l -25.676,-0.004 -1.61499,-0.004 v 0.0342 c -0.0752,-0.006 -0.14578,-0.0223 -0.22101,-0.0223 -1.42667,0 -2.58358,1.15742 -2.58358,2.58202 0,1.42667 1.15691,2.58565 2.58358,2.58565 0.0752,0 0.14578,-0.0181 0.22101,-0.0223 v 0.0306 l 27.29099,0.006 c 7.34245,0 13.31425,-5.07274 13.31425,-11.30808 v -29.49841 c 0,-6.23535 -5.9718,-11.30809 -13.31425,-11.30809"
         style="display:inline;fill:#61849c;fill-opacity:1;fill-rule:nonzero;stroke:none;stroke-width:0.51879084"
         id="path41" />
      <path
         inkscape:connector-curvature="0"
         inkscape:export-ydpi="53.011284"
         inkscape:export-xdpi="53.011284"
         inkscape:export-filename="c:\temp\geops_logo_large.png"
         d="m 90.535193,164.12965 h 17.034487 c 4.4808,0 8.12686,2.74596 8.12686,6.12225 v 4.34072 H 82.408333 v -4.34072 c 0,-3.37629 3.64606,-6.12225 8.12686,-6.12225 z m 30.347177,15.67526 v -9.55301 c 0,-6.23535 -5.97232,-11.30809 -13.31269,-11.30809 H 90.535193 c -7.34245,0 -13.31269,5.07274 -13.31269,11.30809 v 13.84964 c 0,6.23535 5.97024,11.30756 13.31269,11.30756 l 27.753227,0.002 v -0.002 c 1.42875,0 2.59395,-1.16312 2.59395,-2.59187 0,-1.43031 -1.16365,-2.59396 -2.59395,-2.59396 H 90.535193 c -4.4808,0 -8.12686,-2.74596 -8.12686,-6.12173 v -4.32464 l 38.474037,0.028"
         style="display:inline;fill:#61849c;fill-opacity:1;fill-rule:nonzero;stroke:none;stroke-width:0.51879084"
         id="path43" />
      <path
         inkscape:connector-curvature="0"
         inkscape:export-ydpi="53.011284"
         inkscape:export-xdpi="53.011284"
         inkscape:export-filename="c:\temp\geops_logo_large.png"
         d="m 181.12281,170.2519 c 0,-3.37629 3.64555,-6.12225 8.12842,-6.12225 h 17.03294 c 4.48235,0 8.13049,2.74596 8.13049,6.12225 v 13.84964 c 0,3.37577 -3.64814,6.12173 -8.13049,6.12173 h -25.16136 z m 25.16136,-11.30809 h -17.03294 c -7.34245,0 -13.31425,5.07274 -13.31425,11.30809 v 37.77679 c 0,1.42875 1.16313,2.59188 2.59395,2.59188 1.43083,0 2.59188,-1.16313 2.59188,-2.59188 V 195.4091 h 25.16136 c 7.34192,0 13.31425,-5.07221 13.31425,-11.30756 V 170.2519 c 0,-6.23535 -5.97233,-11.30809 -13.31425,-11.30809"
         style="display:inline;fill:#61849c;fill-opacity:1;fill-rule:nonzero;stroke:none;stroke-width:0.51879084"
         id="path45" />
      <path
         inkscape:connector-curvature="0"
         inkscape:export-ydpi="53.011284"
         inkscape:export-xdpi="53.011284"
         inkscape:export-filename="c:\temp\geops_logo_large.png"
         d="m 256.26811,174.97393 z m 0.5577,-0.49233 c -0.0591,-0.008 -0.11777,-0.0166 -0.18054,-0.0166 l -0.23086,-0.004 c -0.0913,-0.006 -0.14993,-0.0125 -0.31024,0.004 h -13.9342 l 0.006,-0.01 -8.86198,0.006 c -2.85543,0 -5.17961,-2.32263 -5.17961,-5.17805 0,-2.81496 2.29202,-5.13707 5.11476,-5.1739 h 30.70619 c 1.47907,0 2.68526,-1.16313 2.68526,-2.59188 0,-1.43031 -1.20619,-2.59396 -2.68526,-2.59396 l -30.64134,-0.004 c -5.71448,0 -10.36544,4.64837 -10.36544,10.36337 0,5.70048 4.64058,10.34728 10.29696,10.35973 l 13.69711,0.008 v 0.002 l 9.5084,-0.002 c 2.85543,0.0975 5.0909,2.40978 5.0909,5.26313 0,2.90419 -2.36102,5.26677 -5.34199,5.26677 -0.002,0 -0.006,0 -0.008,0 l -30.62059,-0.006 c -1.43083,0 -2.59188,1.16313 -2.59188,2.59395 0,1.42875 1.16105,2.59188 2.59188,2.59188 h 30.19933 c 0.0503,0 0.0991,-0.004 0.10531,-0.0125 l 0.13333,0.008 c 0.0856,0.006 0.17276,0.014 0.2594,0.014 5.76792,0 10.45934,-4.69143 10.45934,-10.45675 0,-5.54068 -4.33709,-10.12264 -9.90164,-10.43236"
         style="display:inline;fill:#61849c;fill-opacity:1;fill-rule:nonzero;stroke:none;stroke-width:0.51879084"
         id="path47" />
    </g>
  </g>
</svg>
